<?xml version="1.0" standalone="no"?>
<!DOCTYPE svg PUBLIC "-//W3C//DTD SVG 20010904//EN"
 "http://www.w3.org/TR/2001/REC-SVG-20010904/DTD/svg10.dtd">
<svg version="1.0" xmlns="http://www.w3.org/2000/svg"
 width="24" height="24" viewBox="0 0 512.000000 512.000000"
 preserveAspectRatio="xMidYMid meet">

<g transform="translate(0.000000,512.000000) scale(0.100000,-0.100000)"
fill= '#4474a3' stroke="none">
<path d="M2064 5101 c-39 -24 -64 -58 -64 -88 0 -13 -5 -23 -12 -23 -7 0 -138
14 -291 31 -306 33 -341 32 -423 -16 -255 -150 -182 -533 111 -580 23 -3 159
7 319 24 153 17 282 31 287 31 5 0 9 -11 9 -24 0 -49 69 -106 130 -106 l30 0
0 -109 0 -110 -152 -3 c-134 -3 -156 -5 -180 -23 -50 -38 -58 -64 -58 -187 0
-94 3 -118 20 -145 26 -44 72 -65 152 -71 l68 -5 0 -89 c0 -132 -22 -168 -130
-214 -39 -16 -81 -19 -317 -24 -264 -5 -273 -6 -294 -27 -32 -32 -30 -80 6
-111 l28 -24 261 5 c193 3 274 8 313 20 131 38 210 94 255 180 19 35 23 62 26
165 l4 122 309 0 309 0 0 -103 c0 -68 5 -119 16 -150 22 -64 96 -145 160 -173
129 -57 129 -57 574 -64 l415 -6 85 -29 c198 -68 354 -225 420 -422 22 -63
140 -782 130 -788 -11 -7 -529 -70 -533 -65 -3 3 -23 122 -46 265 -47 292 -61
335 -137 405 -75 69 -121 85 -244 84 -167 -2 -282 -41 -499 -168 -272 -160
-647 -208 -989 -126 -123 30 -228 74 -347 146 -166 100 -270 138 -418 150 -68
6 -75 5 -95 -17 -29 -30 -29 -79 0 -106 16 -15 47 -24 105 -32 105 -13 178
-39 278 -98 207 -122 308 -164 493 -206 84 -18 128 -21 322 -21 197 0 238 3
330 23 150 32 297 91 433 173 138 82 226 116 335 126 126 12 193 -12 225 -81
12 -25 97 -499 97 -540 0 -4 -10 -7 -21 -7 -37 0 -87 -39 -109 -86 -21 -43
-22 -49 -10 -147 7 -56 19 -119 27 -140 17 -42 59 -76 109 -87 37 -9 940 102
972 119 9 5 31 24 47 41 30 31 30 33 29 138 -1 59 -7 127 -14 152 -20 73 -76
120 -145 120 -19 0 -35 2 -35 4 0 26 -116 712 -130 768 -54 221 -217 422 -425
524 -167 82 -196 86 -630 90 -397 4 -457 10 -535 49 -66 34 -84 70 -88 186
l-4 96 70 5 c82 6 127 28 157 78 27 48 29 228 3 277 -35 62 -68 73 -232 73
l-146 0 0 110 0 110 31 0 c62 0 129 54 129 103 0 9 4 18 9 22 6 3 135 -8 287
-25 156 -18 296 -28 319 -25 22 4 68 20 102 36 185 89 225 343 79 492 -44 45
-98 73 -164 88 -39 8 -103 4 -331 -21 -155 -17 -286 -28 -291 -25 -6 4 -10 13
-10 22 0 28 -34 72 -66 88 -27 13 -92 15 -406 15 -350 0 -375 -1 -404 -19z
m726 -366 l0 -235 -320 0 -320 0 0 235 0 235 320 0 320 0 0 -235z m-1075 130
c132 -14 250 -28 263 -31 21 -4 22 -9 22 -99 0 -90 -1 -95 -22 -99 -46 -10
-498 -56 -550 -56 -99 0 -165 73 -156 170 8 86 69 139 158 140 24 0 153 -11
285 -25z m1888 0 c47 -33 67 -72 67 -132 0 -57 -26 -105 -72 -133 -44 -26 -94
-25 -398 8 l-245 27 0 100 0 100 235 26 c318 36 365 36 413 4z m-983 -625 l0
-110 -150 0 -150 0 0 110 0 110 150 0 150 0 0 -110z m400 -320 l0 -60 -550 0
-550 0 0 60 0 60 550 0 550 0 0 -60z m1754 -2117 c3 -16 8 -51 11 -80 6 -49 5
-52 -17 -57 -25 -6 -826 -106 -844 -106 -12 0 -31 147 -21 157 5 4 789 109
844 112 16 1 23 -6 27 -26z"/>
<path d="M310 3799 c-44 -18 -90 -59 -113 -102 l-22 -42 0 -720 c0 -718 0
-720 22 -760 27 -50 58 -80 105 -100 31 -12 86 -15 308 -15 250 0 274 2 309
20 55 28 98 84 111 145 7 34 10 281 8 741 -3 684 -3 689 -25 729 -27 50 -58
80 -105 100 -31 12 -85 15 -305 14 -151 0 -279 -5 -293 -10z m552 -156 c17
-15 18 -50 18 -706 0 -628 -1 -692 -17 -709 -15 -16 -36 -18 -256 -18 -210 0
-243 2 -259 17 -17 15 -18 50 -18 709 l0 693 22 15 c34 24 483 24 510 -1z"/>
<path d="M4361 1354 c-54 -45 -258 -386 -350 -586 -49 -106 -91 -238 -91 -286
0 -106 64 -252 147 -335 269 -269 707 -149 817 222 23 77 20 147 -10 243 -43
136 -188 415 -336 645 -82 127 -118 147 -177 97z m284 -599 c89 -180 108 -243
95 -320 -26 -161 -165 -277 -330 -277 -76 1 -134 19 -196 64 -47 34 -103 110
-122 167 -18 51 -14 131 8 196 25 74 179 372 255 494 l58 93 79 -133 c43 -74
112 -201 153 -284z"/>
</g>
</svg>
