<svg xmlns="http://www.w3.org/2000/svg" xmlns:xlink="http://www.w3.org/1999/xlink" width="227.428" height="45.057" viewBox="0 0 227.428 45.057">
  <defs>
    <linearGradient id="linear-gradient" x1="0.398" y1="0.387" x2="0.747" y2="0.929" gradientUnits="objectBoundingBox">
      <stop offset="0" stop-color="#d3f0f9"/>
      <stop offset="0.448" stop-color="#a2d0e0"/>
      <stop offset="1" stop-color="#72a3c4"/>
    </linearGradient>
    <linearGradient id="linear-gradient-2" x1="0.5" y1="1.175" x2="0.5" y2="-0.175" gradientUnits="objectBoundingBox">
      <stop offset="0" stop-color="#00af8d"/>
      <stop offset="0.634" stop-color="#288bc5"/>
      <stop offset="1" stop-color="#11448c"/>
    </linearGradient>
  </defs>
  <g id="FooterLogo" transform="translate(-997 -620)">
    <g id="Group_20806" data-name="Group 20806" transform="translate(27 5)">
      <g id="Group_20805" data-name="Group 20805" transform="translate(981.148 628.121)">
        <path id="Path_74422" data-name="Path 74422" d="M66.778,36.272l.764.731-.733.762-.763-.731" transform="translate(-60.039 -35.114)" fill="#29367b"/>
        <path id="Path_74423" data-name="Path 74423" d="M74.415,37.034l.763.731L75.911,37l-.763-.731" transform="translate(-66.504 -35.114)" fill="#b1aeb3"/>
        <path id="Path_74424" data-name="Path 74424" d="M70.787,40.675l.595.569.57-.593-.594-.569" transform="translate(-63.673 -38.037)" fill="#d0da33"/>
        <path id="Path_74425" data-name="Path 74425" d="M78.142,41.774l.594.569.57-.593-.594-.569" transform="translate(-69.353 -38.886)" fill="#71ba44"/>
        <path id="Path_74426" data-name="Path 74426" d="M67.507,43.736l.594.569.57-.593-.594-.569" transform="translate(-61.141 -40.403)" fill="#d0da33"/>
        <path id="Path_74427" data-name="Path 74427" d="M74.238,43.969l.594.569.57-.593-.594-.569" transform="translate(-66.338 -40.583)" fill="#27b8be"/>
        <path id="Path_74428" data-name="Path 74428" d="M71.6,46.689l.418.4.4-.417-.418-.4" transform="translate(-64.276 -42.792)" fill="#71ba44"/>
        <path id="Path_74429" data-name="Path 74429" d="M76.928,47.751l.418.4.4-.417-.418-.4" transform="translate(-68.384 -43.612)" fill="#58b75e"/>
        <path id="Path_74430" data-name="Path 74430" d="M0,0H1.318V1.316H0Z" transform="translate(11.122 1.609) rotate(-10.39)" fill="#3088c8"/>
        <path id="Path_74431" data-name="Path 74431" d="M0,0H1.058V1.056H0Z" transform="translate(9.854 2.034) rotate(-10.376)" fill="#1e3871"/>
        <path id="Path_74432" data-name="Path 74432" d="M0,0H1.058V1.056H0Z" transform="translate(11.4 3.143) rotate(-10.39)" fill="#27b8be"/>
        <path id="Path_74433" data-name="Path 74433" d="M0,0H.824V.822H0Z" transform="translate(10.324 3.272) rotate(-10.382)" fill="#d0da33"/>
        <path id="Path_74434" data-name="Path 74434" d="M0,0H.824V.822H0Z" transform="translate(11.537 4.452) rotate(-10.382)" fill="#b1aeb3"/>
        <path id="Path_74435" data-name="Path 74435" d="M0,0H.824V.822H0Z" transform="translate(9.39 3.525) rotate(-10.382)" fill="#27b8be"/>
        <path id="Path_74436" data-name="Path 74436" d="M0,0H.824V.822H0Z" transform="translate(10.522 4.338) rotate(-10.382)" fill="#71ba44"/>
        <path id="Path_74437" data-name="Path 74437" d="M0,0H.58V.578H0Z" transform="translate(9.754 4.428) rotate(-10.39)" fill="#b1aeb3"/>
        <path id="Path_74438" data-name="Path 74438" d="M0,0H.579V.578H0Z" transform="translate(10.598 5.333) rotate(-10.36)" fill="#58b75e"/>
        <path id="Path_74439" data-name="Path 74439" d="M100.226,52.342l-.567,1.189,1.191.565.566-1.188" transform="translate(-86.038 -47.569)" fill="#29367b"/>
        <path id="Path_74440" data-name="Path 74440" d="M94.787,50.489l-.454.953.955.454.454-.953" transform="translate(-81.882 -46.103)" fill="#27b8be"/>
        <path id="Path_74441" data-name="Path 74441" d="M97.425,58.416l-.454.954.956.453.454-.953" transform="translate(-83.92 -52.232)" fill="#71ba44"/>
        <path id="Path_74442" data-name="Path 74442" d="M93.44,56l-.354.742.744.353.354-.742" transform="translate(-80.884 -50.334)" fill="#d0da33"/>
        <path id="Path_74443" data-name="Path 74443" d="M94.714,63.315l-.354.742.744.353.354-.742" transform="translate(-81.868 -55.985)" fill="#d0da33"/>
        <path id="Path_74444" data-name="Path 74444" d="M89.465,54.51l-.354.742.744.353.354-.742" transform="translate(-77.815 -49.181)" fill="#3088c8"/>
        <path id="Path_74445" data-name="Path 74445" d="M91.4,60.308l-.354.742.744.353.354-.742" transform="translate(-79.306 -53.661)" fill="#b1aeb3"/>
        <path id="Path_74446" data-name="Path 74446" d="M88.625,58.541l-.249.522.523.248.249-.522" transform="translate(-77.214 -52.262)" fill="#71ba44"/>
        <path id="Path_74447" data-name="Path 74447" d="M0,0H.578V.579H0Z" transform="translate(11.315 8.025) rotate(-64.552)" fill="#27b8be"/>
        <path id="Path_74448" data-name="Path 74448" d="M100.991,71.551l-1.156.633.634,1.154,1.156-.633" transform="translate(-86.178 -62.44)" fill="#3088c8"/>
        <path id="Path_74449" data-name="Path 74449" d="M98,66.717l-.927.508.509.926.927-.508" transform="translate(-83.998 -58.655)" fill="#27b8be"/>
        <path id="Path_74450" data-name="Path 74450" d="M95.488,74.686l-.928.508.509.926L96,75.612" transform="translate(-82.061 -64.818)" fill="#27b8be"/>
        <path id="Path_74451" data-name="Path 74451" d="M93.964,70.261l-.722.4.4.721.723-.4" transform="translate(-81.007 -61.355)" fill="#29367b"/>
        <path id="Path_74452" data-name="Path 74452" d="M90.71,76.936l-.722.4.4.721.722-.4" transform="translate(-78.495 -66.513)" fill="#58b75e"/>
        <path id="Path_74453" data-name="Path 74453" d="M91.615,66.731l-.722.4.4.721.723-.4" transform="translate(-79.193 -58.627)" fill="#1e3871"/>
        <path id="Path_74454" data-name="Path 74454" d="M89.782,72.56l-.722.4.4.721.722-.4" transform="translate(-77.778 -63.131)" fill="#d0da33"/>
        <path id="Path_74455" data-name="Path 74455" d="M88.877,69.364l-.508.278.279.507.508-.278" transform="translate(-77.21 -60.621)" fill="#b1aeb3"/>
        <path id="Path_74456" data-name="Path 74456" d="M86.268,74.114l-.508.278.278.507.508-.278" transform="translate(-75.197 -64.288)" fill="#27b8be"/>
        <path id="Path_74457" data-name="Path 74457" d="M0,0H1.316V1.319H0Z" transform="translate(11.291 14.149) rotate(-82.958)" fill="#71ba44"/>
        <path id="Path_74458" data-name="Path 74458" d="M0,0H1.056V1.058H0Z" transform="translate(11.54 12.606) rotate(-82.935)" fill="#1e3871"/>
        <path id="Path_74459" data-name="Path 74459" d="M0,0H1.056V1.058H0Z" transform="translate(10.012 13.741) rotate(-82.935)" fill="#27b8be"/>
        <path id="Path_74460" data-name="Path 74460" d="M0,0H.822V.824H0Z" transform="matrix(0.123, -0.992, 0.992, 0.123, 10.458, 12.49)" fill="#71ba44"/>
        <path id="Path_74461" data-name="Path 74461" d="M0,0H.822V.824H0Z" transform="matrix(0.123, -0.992, 0.992, 0.123, 8.963, 13.289)" fill="#b1aeb3"/>
        <path id="Path_74462" data-name="Path 74462" d="M0,0H.822V.824H0Z" transform="translate(10.496 11.525) rotate(-82.935)" fill="#b1aeb3"/>
        <path id="Path_74463" data-name="Path 74463" d="M0,0H.822V.824H0Z" transform="translate(9.377 12.356) rotate(-82.935)" fill="#71ba44"/>
        <path id="Path_74464" data-name="Path 74464" d="M0,0H.578V.579H0Z" transform="translate(9.779 11.399) rotate(-82.946)" fill="#b1aeb3"/>
        <path id="Path_74465" data-name="Path 74465" d="M0,0H.578V.58H0Z" transform="matrix(0.123, -0.992, 0.992, 0.123, 8.659, 11.929)" fill="#b1aeb3"/>
        <path id="Path_74466" data-name="Path 74466" d="M72.226,94.375l-.966-.9-.9.965.966.9" transform="translate(-63.404 -79.425)" fill="#d0da33"/>
        <path id="Path_74467" data-name="Path 74467" d="M71.625,32.152l-.966-.9-.9.965.966.9" transform="translate(-62.94 -31.256)" fill="#71ba44"/>
        <path id="Path_74468" data-name="Path 74468" d="M76.582,89.918l-.775-.718-.72.774.775.718" transform="translate(-67.023 -76.051)" fill="#27b8be"/>
        <path id="Path_74469" data-name="Path 74469" d="M68.213,90.057l-.776-.718-.72.774.775.718" transform="translate(-60.558 -76.159)" fill="#71ba44"/>
        <path id="Path_74470" data-name="Path 74470" d="M72.572,87.134l-.6-.559-.56.6.6.559" transform="translate(-64.153 -73.969)" fill="#3088c8"/>
        <path id="Path_74471" data-name="Path 74471" d="M65.2,86.157l-.6-.559-.56.6.6.56" transform="translate(-58.461 -73.214)" fill="#d0da33"/>
        <path id="Path_74472" data-name="Path 74472" d="M75.189,83.8l-.6-.559-.56.6.6.559" transform="translate(-66.174 -71.39)" fill="#d0da33"/>
        <path id="Path_74473" data-name="Path 74473" d="M69.068,83.9l-.6-.559-.56.6.6.559" transform="translate(-61.447 -71.468)" fill="#b1aeb3"/>
        <path id="Path_74474" data-name="Path 74474" d="M72.482,81.946l-.425-.394-.394.424.425.393" transform="translate(-64.32 -70.037)" fill="#1e3871"/>
        <path id="Path_74475" data-name="Path 74475" d="M67.142,80.972l-.425-.393L66.323,81l.425.393" transform="translate(-60.199 -69.285)" fill="#b1aeb3"/>
        <path id="Path_74476" data-name="Path 74476" d="M0,0H1.319V1.316H0Z" transform="matrix(0.98, -0.197, 0.197, 0.98, 2.901, 13.229)" fill="#3088c8"/>
        <path id="Path_74477" data-name="Path 74477" d="M0,0H1.058V1.056H0Z" transform="matrix(0.98, -0.197, 0.197, 0.98, 4.45, 12.986)" fill="#27b8be"/>
        <path id="Path_74478" data-name="Path 74478" d="M0,0H1.058V1.056H0Z" transform="matrix(0.98, -0.197, 0.197, 0.98, 2.887, 11.902)" fill="#71ba44"/>
        <path id="Path_74479" data-name="Path 74479" d="M0,0H.824V.822H0Z" transform="matrix(0.98, -0.197, 0.197, 0.98, 4.217, 11.939)" fill="#d0da33"/>
        <path id="Path_74480" data-name="Path 74480" d="M0,0H.824V.822H0Z" transform="matrix(0.98, -0.197, 0.197, 0.98, 5.147, 11.671)" fill="#29367b"/>
        <path id="Path_74481" data-name="Path 74481" d="M0,0H.824V.822H0Z" transform="matrix(0.98, -0.197, 0.197, 0.98, 4.002, 10.877)" fill="#3088c8"/>
        <path id="Path_74482" data-name="Path 74482" d="M0,0H.58V.578H0Z" transform="matrix(0.981, -0.196, 0.196, 0.981, 5.037, 10.965)" fill="#71ba44"/>
        <path id="Path_74483" data-name="Path 74483" d="M0,0H.579V.578H0Z" transform="matrix(0.98, -0.197, 0.197, 0.98, 4.179, 10.074)" fill="#b1aeb3"/>
        <path id="Path_74484" data-name="Path 74484" d="M41.537,74.574l.547-1.2-1.2-.546-.547,1.2" transform="translate(-40.189 -63.425)" fill="#27b8be"/>
        <path id="Path_74485" data-name="Path 74485" d="M47.835,77.152l.438-.961-.963-.438-.439.961" transform="translate(-45.22 -65.639)" fill="#d0da33"/>
        <path id="Path_74486" data-name="Path 74486" d="M45.065,69.27l.439-.961-.963-.438-.438.961" transform="translate(-43.081 -59.543)" fill="#3088c8"/>
        <path id="Path_74487" data-name="Path 74487" d="M0,0H.822V.823H0Z" transform="matrix(0.415, -0.91, 0.91, 0.415, 2.173, 9.885)" fill="#27b8be"/>
        <path id="Path_74488" data-name="Path 74488" d="M53.222,78.663l.342-.748-.75-.341-.342.748" transform="translate(-49.527 -67.002)" fill="#b1aeb3"/>
        <path id="Path_74489" data-name="Path 74489" d="M0,0H.822V.823H0Z" transform="translate(1.857 8.228) rotate(-65.474)" fill="#29367b"/>
        <path id="Path_74490" data-name="Path 74490" d="M0,0H.822V.823H0Z" transform="translate(3.086 10.209) rotate(-65.474)" fill="#58b75e"/>
        <path id="Path_74491" data-name="Path 74491" d="M0,0H.822V.823H0Z" transform="translate(2.624 8.899) rotate(-65.455)" fill="#d0da33"/>
        <path id="Path_74492" data-name="Path 74492" d="M55.384,70.492l.24-.526-.527-.24-.24.526" transform="translate(-51.347 -60.898)" fill="#1e3871"/>
        <path id="Path_74493" data-name="Path 74493" d="M54.626,65.128l.24-.526-.527-.24-.24.526" transform="translate(-50.762 -56.756)" fill="#71ba44"/>
        <path id="Path_74494" data-name="Path 74494" d="M40.35,55.28l1.146-.652-.654-1.143-1.145.652" transform="translate(-39.697 -48.458)" fill="#27b8be"/>
        <path id="Path_74495" data-name="Path 74495" d="M44.277,60.9l.919-.523-.524-.917-.919.523" transform="translate(-42.813 -53.043)" fill="#71ba44"/>
        <path id="Path_74496" data-name="Path 74496" d="M46.652,52.889l.919-.523-.524-.918-.919.523" transform="translate(-44.648 -46.847)" fill="#1e3871"/>
        <path id="Path_74497" data-name="Path 74497" d="M49.012,58.037l.715-.407-.408-.714-.716.407" transform="translate(-46.542 -51.043)" fill="#3088c8"/>
        <path id="Path_74498" data-name="Path 74498" d="M52.154,51.31l.715-.407-.408-.714-.716.407" transform="translate(-48.968 -45.844)" fill="#71ba44"/>
        <path id="Path_74499" data-name="Path 74499" d="M51.418,61.528l.716-.407-.408-.714-.716.407" transform="translate(-48.4 -53.741)" fill="#27b8be"/>
        <path id="Path_74500" data-name="Path 74500" d="M53.155,55.67l.716-.407-.408-.714-.716.407" transform="translate(-49.741 -49.214)" fill="#d0da33"/>
        <path id="Path_74501" data-name="Path 74501" d="M54.909,59.633l.5-.287-.287-.5-.5.286" transform="translate(-51.167 -52.498)" fill="#b1aeb3"/>
        <path id="Path_74502" data-name="Path 74502" d="M57.438,54.84l.5-.287-.287-.5-.5.287" transform="translate(-53.119 -48.797)" fill="#71ba44"/>
        <path id="Path_74503" data-name="Path 74503" d="M0,0H1.316V1.318H0Z" transform="translate(2.617 2.891) rotate(-83.898)" fill="#71ba44"/>
        <path id="Path_74504" data-name="Path 74504" d="M0,0H1.056V1.058H0Z" transform="translate(2.665 4.21) rotate(-83.892)" fill="#b1aeb3"/>
        <path id="Path_74505" data-name="Path 74505" d="M0,0H1.056V1.058H0Z" transform="translate(4.173 3.05) rotate(-83.892)" fill="#27b8be"/>
        <path id="Path_74506" data-name="Path 74506" d="M0,0H.822V.824H0Z" transform="matrix(0.107, -0.994, 0.994, 0.107, 3.99, 4.102)" fill="#d0da33"/>
        <path id="Path_74507" data-name="Path 74507" d="M0,0H.822V.824H0Z" transform="translate(5.47 3.276) rotate(-83.91)" fill="#3088c8"/>
        <path id="Path_74508" data-name="Path 74508" d="M0,0H.822V.824H0Z" transform="matrix(0.107, -0.994, 0.994, 0.107, 3.968, 5.066)" fill="#27b8be"/>
        <path id="Path_74509" data-name="Path 74509" d="M0,0H.822V.824H0Z" transform="matrix(0.107, -0.994, 0.994, 0.107, 5.073, 4.215)" fill="#71ba44"/>
        <path id="Path_74510" data-name="Path 74510" d="M0,0H.578V.58H0Z" transform="translate(4.939 4.964) rotate(-83.892)" fill="#1e3871"/>
        <path id="Path_74511" data-name="Path 74511" d="M0,0H.578V.58H0Z" transform="matrix(0.106, -0.994, 0.994, 0.106, 6.051, 4.414)" fill="#b1aeb3"/>
      </g>
      <path id="Path_74512" data-name="Path 74512" d="M64.833,55.057a2.327,2.327,0,0,0-1.96-.11,3.808,3.808,0,0,0-.917.543,9.953,9.953,0,0,1-.048-2.478,0,0,0,0,1,.006,0c.368.232.265.879.188,1.064,0,0,0,.006.007,0a1.142,1.142,0,0,0,.14-1.291c-.017-.027.087.056.172.165a1.264,1.264,0,0,1,.208.856h0a1.081,1.081,0,0,0-.294-1.332c-.02-.017.058.009.083.017a.9.9,0,0,1,.566.858.853.853,0,0,0-.666-1.126.851.851,0,0,1,.6.119c.163.11.206.243.2.206a.708.708,0,0,0-.961-.528.479.479,0,0,1,.468-.217.465.465,0,0,1,.171.04,0,0,0,0,0,0-.006.537.537,0,0,0-.884.039,0,0,0,0,1-.006,0,1.687,1.687,0,0,1-.183-.52,2.332,2.332,0,0,1-.189.52,0,0,0,0,1-.006,0,.537.537,0,0,0-.884-.039,0,0,0,0,0,0,.006.547.547,0,0,1,.643.171,0,0,0,0,1,0,.005.706.706,0,0,0-.96.528s.005.006.007,0a.576.576,0,0,1,.128-.157.826.826,0,0,1,.665-.171.879.879,0,0,0-.665.532c-.108.29,0,.672,0,.578a.881.881,0,0,1,.645-.866,0,0,0,0,1,0,.006,1.053,1.053,0,0,0-.287,1.33,1.093,1.093,0,0,1,.37-1.022s.008,0,.006,0a1.142,1.142,0,0,0,.14,1.291s.008,0,.007,0c-.077-.185-.18-.832.188-1.064a0,0,0,0,1,.006,0,9.931,9.931,0,0,1-.048,2.478,2.809,2.809,0,0,0-1.9-.705,2.212,2.212,0,0,0-.981.273.009.009,0,0,0,.007.016,2.938,2.938,0,0,1,2.871.793,9.576,9.576,0,0,1-1.064.9.241.241,0,1,0-.383.293c.378.377.968-.371,1.675-1,.68.6,1.3,1.373,1.675,1a.27.27,0,0,0,.047-.208.242.242,0,0,0-.43-.085,9.376,9.376,0,0,1-1.064-.9,2.936,2.936,0,0,1,2.871-.793.009.009,0,0,0,.008-.016" transform="translate(927.251 581.561)" fill="#727a82"/>
      <path id="Path_74513" data-name="Path 74513" d="M18.625,107.57h.334v-3.9h-.334Zm-8.745-.435-.521-1.667a1.03,1.03,0,0,1,1.639,0l-.521,1.667Zm-1.84,0a1.779,1.779,0,0,1-.69-.067c-.9-.372-.657-2.007.353-2.007H8.04Zm9.279,0c-.538-.021-1.022.124-1.268-.434a15.725,15.725,0,0,0,.029-1.808h-.334v1.472c0,1.08-1,1.01-1.235.361a7.58,7.58,0,0,1-.054-1.833h-.334v1.5c0,.491-.235.738-.563.738h-.647v-2.243h-.334v2.243H10.827l.584-1.819a1.87,1.87,0,0,0-1.235-.733,1.8,1.8,0,0,0-1.235.733l.588,1.819H8.374v-2.514H7.84a1.384,1.384,0,0,0-1.381,1.493A1.365,1.365,0,0,0,8.04,107.57c-.005.053.042.426-.15.614a.748.748,0,0,1-.7.109,1.4,1.4,0,0,1-.281-.131l-.1.418a1.474,1.474,0,0,0,.638.185c.636,0,.93-.414.93-1.114v-.081c5.447-.045,5.286.1,5.618-.136a.992.992,0,0,0,.307-.364,1,1,0,0,0,.33.408.965.965,0,0,0,1.008.011.852.852,0,0,0,.323-.418.765.765,0,0,0,.73.495v.005h.964v-3.9h-.334Zm29.948-.193a.812.812,0,0,1-1.606-.014,1.533,1.533,0,0,1,0-.882c.356-1.151,1.675-.821,1.675.443a1.44,1.44,0,0,1-.069.453m-3.238,0c-.255.774-1.025.888-1.427.348a1.449,1.449,0,0,1,0-1.607.735.735,0,0,1,.966-.253,1.3,1.3,0,0,1,.463,1.513m-8.117.193a1.682,1.682,0,0,1-.682-.07c-.879-.377-.669-2.01.353-2.01h.33Zm12.8,0H47.566c.358-1.025-.2-2.226-1.114-2.226-.844,0-1.434,1.127-1.089,2.226H44.328c.349-.995-.18-2.226-1.114-2.226-.844,0-1.434,1.128-1.089,2.226h-1.06v-3.463h-.334v3.463H39.668a2.973,2.973,0,0,0-.209-1.523.765.765,0,0,0-.705-.375H37.277l.628-1.565h-.363l-.641,1.56a.93.93,0,0,0,.15.44c1.669.018,1.778-.046,1.976.063a.571.571,0,0,1,.282.421,6.781,6.781,0,0,1,.025.98H36.246v-2.514H35.72a1.368,1.368,0,0,0-1.377,1.477,1.323,1.323,0,0,0,1.377,1.472h6.621a1.037,1.037,0,0,0,1.769,0h1.469a1.037,1.037,0,0,0,1.769,0h1.7v-3.9h-.334Zm1.306.435h.334v-3.9h-.334Zm-24.593.956h.343v-.446h-.343Zm3.263-1.391-.522-1.667a1.03,1.03,0,0,1,1.64,0l-.521,1.667Zm2.366,0H29.636l.584-1.819a1.869,1.869,0,0,0-1.235-.733,1.8,1.8,0,0,0-1.235.733l.588,1.819H27.1v-2.514h-.334v3.041c0,.384-.021.668-.317.668a.409.409,0,0,1-.171-.033l-.088.419a.591.591,0,0,0,.772-.247,2.139,2.139,0,0,0,.138-.9h4.293v-3.9h-.334v3.463ZM5.716,105c-.371-.528-.8-.337-.947-.38v.434c.244.012.356-.035.521.068a.627.627,0,0,1,.278.426,12.353,12.353,0,0,1,.027,1.586H4.03v.435h1.9a12.521,12.521,0,0,0-.052-2.188,1.114,1.114,0,0,0-.16-.38m18.49,3.53h.343v-.446h-.343Zm-2.029-1.4a1.683,1.683,0,0,1-.682-.07c-.88-.377-.668-2.01.353-2.01h.33Zm3.588-2.514h-.334v2.514h-1.26v-2.514h-.334v2.514H22.51v-2.514a1.82,1.82,0,0,0-1.527.421c-.682.754-.506,2.528,1,2.528h3.78v-2.949Zm-2.143,3.91h.343v-.446h-.343ZM1.316,103.672H.973v.446h.343v-.446Zm34.344,0h-.343v.446h.343Zm-13.152,0h-.343v.446h.343ZM3.285,108.531h.343v-.446H3.285Zm18.639-4.859h-.343v.446h.343Zm-20.023,0H1.558v.446H1.9Zm.8,4.859h.343v-.446H2.7Zm-1.132-1.4a1.681,1.681,0,0,1-.682-.07c-.878-.376-.671-2.01.353-2.01h.33Zm1.994-2.514H3.229v2.514H1.9v-2.514a2.729,2.729,0,0,0-1.093.111,1.3,1.3,0,0,0-.711.779,1.9,1.9,0,0,0,.015,1.249,1.276,1.276,0,0,0,1.264.809H3.563Zm28.8,2.949h.334v-3.9h-.334Zm3.884-3.9H35.9v.446h.343Z" transform="translate(970 541.418)" fill="#727a81"/>
      <path id="Path_74514" data-name="Path 74514" d="M-5262.844,11717.229v-.009c0-.869.512-1.606,1.23-1.606a1.135,1.135,0,0,1,.917.422l-.267.412c-.646-.714-1.442-.2-1.442.762v.011c0,.638.324,1.106.811,1.106a.821.821,0,0,0,.576-.235v-.579h-.61v-.475h1.016v1.3a1.343,1.343,0,0,1-.992.485C-5262.252,11718.825-5262.844,11718.261-5262.844,11717.229Zm12.252,0v-.009c0-.873.517-1.606,1.25-1.606s1.244.723,1.244,1.6v.011a1.441,1.441,0,0,1-1.25,1.6C-5250.082,11718.825-5250.592,11718.1-5250.592,11717.229Zm.439-.02v.011c0,.6.338,1.1.811,1.1s.8-.492.8-1.094v-.009c0-.6-.338-1.105-.811-1.105S-5250.153,11716.607-5250.153,11717.21Zm-7.33.02v-.009c0-.873.518-1.606,1.25-1.606s1.244.723,1.244,1.6v.011c0,.871-.516,1.6-1.25,1.6S-5257.483,11718.1-5257.483,11717.229Zm.439-.02v.011c0,.6.337,1.1.81,1.1s.8-.492.8-1.094v-.009c0-.6-.337-1.105-.811-1.105S-5257.043,11716.607-5257.043,11717.21Zm17.38.244v-1.787h.419v1.767c0,.576.229.886.6.886s.6-.293.6-.865v-1.787h.42v1.761c0,.927-.4,1.393-1.026,1.393S-5239.664,11718.354-5239.664,11717.454Zm-4.817.865.254-.392a.978.978,0,0,0,.752.4.381.381,0,0,0,.423-.389v-.01c0-.694-1.334-.22-1.334-1.4v-.008c0-.954,1.023-1.2,1.681-.51l-.227.412c-.547-.532-1.035-.324-1.035.049v.009c0,.684,1.333.25,1.333,1.4v.009a.832.832,0,0,1-.847.927A1.358,1.358,0,0,1-5244.48,11718.319Zm25.5.451-.242-.748h-1.128l-.244.748h-.432l1.052-3.124h.387l1.05,3.124Zm-1.217-1.231h.821l-.411-1.24Zm-1.647,1.231v-3.1h.42v3.1Zm-2.5,0v-3.1h1.069a.737.737,0,0,1,.783.79.794.794,0,0,1-.341.7.737.737,0,0,1,.475.754v.009a.8.8,0,0,1-.883.851Zm.412-.482h.694a.4.4,0,0,0,.46-.426v-.008c0-.263-.16-.417-.491-.417h-.663Zm0-1.312h.572a.4.4,0,0,0,.451-.423v-.008a.373.373,0,0,0-.42-.394h-.6Zm-1.251,1.794-.243-.748h-1.127l-.246.748h-.429l1.049-3.124h.389l1.048,3.124Zm-1.217-1.231h.82l-.412-1.24Zm-1.631,1.231-.586-1.081h-.525v1.081h-.418v-3.1h1.063a.868.868,0,0,1,.886.981.957.957,0,0,1-.569.946l.644,1.176Zm-1.111-1.564h.614a.473.473,0,0,0,.49-.521v-.008a.458.458,0,0,0-.494-.514h-.61Zm-1.258,1.564-.242-.748h-1.127l-.245.748h-.43l1.05-3.124h.387l1.05,3.124Zm-1.216-1.231h.82l-.412-1.24Zm-2.7,1.231v-3.1h.42v3.1Zm-2.687,0v-3.1h.889c1.7,0,1.68,3.1,0,3.1Zm.419-.5h.47c1.112,0,1.1-2.109,0-2.109h-.47Zm-3.763.5-.242-.748h-1.129l-.244.748h-.431l1.05-3.124h.389l1.05,3.124Zm-1.218-1.231h.822l-.412-1.24Zm-6.007,1.231v-3.1h1.774v.5h-1.356v.847h1.2v.5h-1.2v1.265Zm-4.966,0v-2.225l-.753,1.462h-.014l-.746-1.454v2.217h-.412v-3.1h.446l.726,1.467.726-1.467h.445v3.1Zm-7.49,0v-3.1h.888c1.7,0,1.68,3.1,0,3.1Zm.418-.5h.47c1.113,0,1.1-2.109,0-2.109h-.47Zm-4.1.5-1.314-2.207v2.207h-.413v-3.1h.389l1.278,2.146v-2.146h.414v3.1Zm-2.792,0v-3.1h.42v3.1Zm-.89,0-.814-1.4-.372.5v.9H-5269v-3.1h.419v1.563l1.136-1.562h.514l-.992,1.334,1.037,1.77Z" transform="translate(6239.427 -11063.825)" fill="#727a81"/>
      <path id="Path_74421" data-name="Path 74421" d="M37.3,17.308v.033c0,2.2-1.84,3.814-4.829,3.814A6.952,6.952,0,0,1,27.24,19.14l2.031-1.683a4.332,4.332,0,0,0,3.238,1.4c1.111,0,1.9-.55,1.9-1.416-.015-.023.217-1.516-2.625-1.516H30.555l-.46-1.633,4.3-3.763-1.724.964H28.025V9.3h9.063v1.932L33.7,14.043c1.82.267,3.6,1.1,3.6,3.265M28.887,3.965A1.963,1.963,0,0,1,30.98,2.059h1.377L32,2.216c.016,2.893-.066,3.258.147,3.681H31a1.987,1.987,0,0,1-2.108-1.918ZM30.98,6.381H32.2V6a.815.815,0,0,0,.386.312c.389.161.106.06,11.259.09V1.575h-.588V5.889s-10.2.034-10.392-.042a.442.442,0,0,1-.257-.377c-.045-.261-.017-.265-.026-3.9H31a2.542,2.542,0,0,0-2.734,2.4v.013a2.518,2.518,0,0,0,2.719,2.39m17.2-5.318H46.894C46.922.692,46.725,0,47.593,0h.415V.356c-.4.026-.633-.085-.633.194V.669h.808Zm1.49,5.389a2.055,2.055,0,0,1-.478-.058l.155-.492c.266.066.606.07.746-.137.164-.245.105-.332.114-4.19H50.8a31.006,31.006,0,0,1-.055,4.12.956.956,0,0,1-1.07.757M32.585,1.063H32V.552h.588ZM45.532,2.828a1.684,1.684,0,0,1,1.448-.734h.95l-.336.146v2.3a4.586,4.586,0,0,1-1.217-.08A1.176,1.176,0,0,1,45.4,3.333a.972.972,0,0,1,.136-.5m0,1.812a3.668,3.668,0,0,0,1.865.406l.2-.361c-.032.35.11.838-.265,1.083A1.876,1.876,0,0,1,46.1,5.9a3.149,3.149,0,0,1-.5-.153l-.184.492a3.615,3.615,0,0,0,1.125.217,1.826,1.826,0,0,0,1.25-.355,1.23,1.23,0,0,0,.39-.956V1.575a6.909,6.909,0,0,0-1.934.134c-1.77.53-1.806,2.256-.717,2.931M31.408,1.063H30.82V.552h.588Zm-6.089.506h.607v4.8h-.5L21.517,2.052l.346.7V6.371h-.608v-4.8h.584L25.575,5.7l-.256-.589V1.569ZM2.375,6.405,0,1.569H.694l2.12,4.464-.06-.528L4.632,1.569H5.3L2.928,6.405ZM12.9,1.569h.623v4.8H12.9Zm6.686,2.415a2.028,2.028,0,0,1-2.162,1.969A2.053,2.053,0,0,1,15.247,3.97V3.956a2.028,2.028,0,0,1,2.162-1.968A2.053,2.053,0,0,1,19.587,3.97Zm-2.162-2.5A2.626,2.626,0,0,0,14.6,3.97v.014a2.6,2.6,0,0,0,2.809,2.469A2.626,2.626,0,0,0,20.235,3.97V3.956a2.6,2.6,0,0,0-2.809-2.469M11.873,5.068v.014c0,.823-.789,1.358-1.886,1.358A3.512,3.512,0,0,1,7.73,5.671l.387-.4a2.846,2.846,0,0,0,1.894.679c.742,0,1.231-.343,1.231-.816V5.123c0-1.34-3.29-.456-3.29-2.3V2.811c0-.755.765-1.31,1.815-1.31a3.159,3.159,0,0,1,1.941.59l-.363.418c-1.252-.887-2.77-.547-2.77.254v.014c0,.453.284.706,1.5.933,1.231.233,1.8.624,1.8,1.358m-5.1,1.3H6.15V1.57h.623Zm36.281.54h.588v.511h-.588Zm-1.177,0h.588v.511h-.588ZM4.933,18.74h5.114v2.216H.122V18.924c4.96-3.666,6.783-4.382,6.783-5.98,0-.983-.747-1.516-1.8-1.516-1.035,0-1.744.5-2.74,1.565L.294,11.545a5.824,5.824,0,0,1,5-2.416c2.778,0,4.618,1.416,4.618,3.6v.033c0,2.736-2.378,3.618-6.457,6.481l-.57.382Zm44.3-3.581a3.753,3.753,0,0,1-4.024,3.631,3.813,3.813,0,0,1-4.062-3.665v-.033a3.753,3.753,0,0,1,4.024-3.631,3.813,3.813,0,0,1,4.062,3.664ZM45.208,9.1c-4.139,0-7.147,2.715-7.147,6.03v.034c0,3.315,2.97,6,7.109,6s7.147-2.715,7.147-6.03v-.033c0-3.315-2.97-6-7.109-6" transform="translate(970 620)" fill="#727a81"/>
    </g>
    <rect id="Rectangle_7747" data-name="Rectangle 7747" width="1" height="29" transform="translate(1059 628)" fill="rgba(0,0,0,0.2)"/>
    <g id="Group_20192" data-name="Group 20192" transform="translate(97.135 610.494)">
      <g id="Group_20185" data-name="Group 20185" transform="translate(973.399 9.506)">
        <g id="logo" transform="translate(0)">
          <circle id="Path_2" data-name="Path 2" cx="22.528" cy="22.528" r="22.528" transform="translate(108.836 0)" fill="#fff"/>
          <path id="Path_3" data-name="Path 3" d="M1226.211,806.559a17.244,17.244,0,0,1-10.975-3.911,16.771,16.771,0,0,1-6.185-12.994c0-2.945,1.79-7.24,3.134-9.651a19.68,19.68,0,0,0-6.883,15.385,19.236,19.236,0,0,0,.779,5.415,14.808,14.808,0,0,0,4.284,7.152,9.66,9.66,0,0,0,3.073,1.791,10.822,10.822,0,0,0,3.123.687l.142,0q.256.007.513.009a21.41,21.41,0,0,0,12.873-4.328A17.408,17.408,0,0,1,1226.211,806.559Z" transform="translate(-1085.638 -766.384)" fill="#1773b3"/>
          <path id="Path_4" data-name="Path 4" d="M1307.6,746.6a21.3,21.3,0,0,0-3.379-1.2c1.546,2.734,1.676,4.659,1.676,8.023a17.825,17.825,0,0,1-17.307,18.215,18.445,18.445,0,0,0,11.568,3.827,9.077,9.077,0,0,0,3.59-.694c5.131-3.936,7.734-9.1,7.734-16.062C1311.479,753.667,1310.5,750.266,1307.6,746.6Z" transform="translate(-1158.498 -736.113)" fill="url(#linear-gradient)"/>
          <path id="Path_6" data-name="Path 6" d="M1125.8,699.622c0,8.858,6.927,18.359,14.758,20.414a19.009,19.009,0,0,1-6.241-14.245,21.267,21.267,0,0,1,17.031-20.807,21.4,21.4,0,0,1,13.088,1.456c.057.025.114.05.17.076a21.655,21.655,0,0,0-38.806,13.107Z" transform="translate(-1016.087 -677.222)" fill="url(#linear-gradient-2)"/>
          <path id="Path_28032" data-name="Path 28032" d="M20257.529,8206.853v-.026a1.331,1.331,0,0,1,1.291-1.3h.986v-5.658a1.332,1.332,0,0,1,1.3-1.289h.027v4.911h2.533v-3.622a1.339,1.339,0,0,1,1.307-1.289h.027v4.911h1.955v-3.595a1.342,1.342,0,0,1,1.318-1.316h.012v4.911h2.047v-3.622a1.326,1.326,0,0,1,1.3-1.289h.027v5.5a.743.743,0,0,1-.738.74h-9.787v1.295a.74.74,0,0,1-.738.741Zm-55.406,0a1.327,1.327,0,0,1-1.318-1.31v-.73h-1.791a3.118,3.118,0,0,1-1.215-5.99,3.045,3.045,0,0,1,1.215-.246,3.089,3.089,0,0,1,1.738.533,3.112,3.112,0,0,1,1.381,2.587v1.791h2.717v-6.21a1.322,1.322,0,0,1,1.275-1.324h.055v8.2a.671.671,0,0,1-.2.472.64.64,0,0,1-.426.189h-3.422v2.04Zm-4.115-6.643a1.788,1.788,0,0,0-.648.788,1.767,1.767,0,0,0-.143.7,1.808,1.808,0,0,0,1.1,1.649,1.777,1.777,0,0,0,.7.142h1.791V8201.7a1.793,1.793,0,0,0-.307-1,1.79,1.79,0,0,0-2.49-.485Zm24.191,6.64h-.221a.13.13,0,0,1-.127-.129v-1.091a.129.129,0,0,1,.127-.124h1.092a.128.128,0,0,1,.129.124v.439a.779.779,0,0,1-.768.78Zm-1.1,0a.783.783,0,0,1-.771-.78v-.439a.127.127,0,0,1,.129-.124h1.092a.127.127,0,0,1,.125.124v1.091a.128.128,0,0,1-.125.129Zm-44.254,0a.128.128,0,0,1-.129-.129v-1.091a.127.127,0,0,1,.129-.124h1.09a.127.127,0,0,1,.127.124v.439a.781.781,0,0,1-.771.78Zm-.883,0a.782.782,0,0,1-.768-.78v-.439a.126.126,0,0,1,.127-.124h1.092a.128.128,0,0,1,.129.124v1.091a.129.129,0,0,1-.129.129Zm70.045-2.033a3.068,3.068,0,0,1-2.865-1.908,3.073,3.073,0,0,1-.25-1.212,3.135,3.135,0,0,1,3.115-3.12,3.127,3.127,0,0,1,2.873,1.908,3.174,3.174,0,0,1,.25,1.212v1.791h7.064V8201.7a1.744,1.744,0,0,0-.3-1,1.659,1.659,0,0,0-.791-.646,1.754,1.754,0,0,0-.7-.143h-3.988l-.939-.941,4.961-4.962.021.017a1.316,1.316,0,0,1-.01,1.854l-2.7,2.7h2.656a3.144,3.144,0,0,1,2.881,1.908,3.027,3.027,0,0,1,.24,1.212v2.462a.678.678,0,0,1-.658.658Zm-1-4.609a1.842,1.842,0,0,0-.645.791,1.74,1.74,0,0,0-.145.7,1.845,1.845,0,0,0,.3,1,1.787,1.787,0,0,0,.793.645,1.665,1.665,0,0,0,.693.148h1.795V8201.7a1.873,1.873,0,0,0-.307-1,1.794,1.794,0,0,0-1.488-.789A1.759,1.759,0,0,0,20245.012,8200.207Zm-39.5,4.609h0Zm-33.393,0a3.121,3.121,0,0,1-2.584-4.865,3.118,3.118,0,0,1,5.707,1.745v1.791h2.918v-3.595a1.326,1.326,0,0,1,1.3-1.312h.027v4.907h3.059v-3.614a1.332,1.332,0,0,1,1.3-1.3h.025v4.911h2.836a2.877,2.877,0,0,1-.32-.577,3.14,3.14,0,0,1-.248-1.214v-5.749a1.334,1.334,0,0,1,1.33,1.33v1.273h0v.025h3.986a3.081,3.081,0,0,1,1.74.533,3.116,3.116,0,0,1,1.379,2.587v2.455a.673.673,0,0,1-.2.468.665.665,0,0,1-.471.2Zm15.361-3.12a1.806,1.806,0,0,0,.3,1,1.791,1.791,0,0,0,1.484.79h3.992V8201.7a1.8,1.8,0,0,0-.309-1,1.818,1.818,0,0,0-.787-.652,1.851,1.851,0,0,0-.7-.141h-3.986Zm-16.359-1.486a1.787,1.787,0,0,0-.482,2.487,1.791,1.791,0,0,0,1.48.79h1.795V8201.7a1.815,1.815,0,0,0-1.092-1.653,1.851,1.851,0,0,0-.7-.141A1.823,1.823,0,0,0,20171.119,8200.21Zm43.479,4.6a3.116,3.116,0,0,1-1.744-.531,3.118,3.118,0,0,1-1.375-2.588,3.12,3.12,0,0,1,1.9-2.871,3.072,3.072,0,0,1,1.215-.246,3.115,3.115,0,0,1,3.119,3.117v2.455a.678.678,0,0,1-.191.471.666.666,0,0,1-.473.193Zm-1-4.6a1.776,1.776,0,0,0-.652.786,1.736,1.736,0,0,0-.143.7,1.779,1.779,0,0,0,.3,1,1.8,1.8,0,0,0,1.486.79h1.793v-1.794a1.818,1.818,0,0,0-.3-1,1.862,1.862,0,0,0-.795-.652,1.821,1.821,0,0,0-.7-.141A1.766,1.766,0,0,0,20213.6,8200.21Zm22.377,4.587h-16.943v-8.846h.006a1.323,1.323,0,0,1,1.322,1.26v6.25h2.875v-3.621a1.332,1.332,0,0,1,1.307-1.287h.018v4.908h2.7v-1.788a3.133,3.133,0,0,1,1.9-2.877,3.165,3.165,0,0,1,1.215-.243,3.12,3.12,0,0,1,3.115,3.12,3.158,3.158,0,0,1-.529,1.745l-.037.043h3.348v-6.184a1.324,1.324,0,0,1,1.3-1.326h.023v8.177a.646.646,0,0,1-.2.469.665.665,0,0,1-.471.2Zm-6.6-4.611a1.828,1.828,0,0,0-.654.789,1.862,1.862,0,0,0-.139.7v1.788h1.795a1.8,1.8,0,0,0,1.648-1.091,1.765,1.765,0,0,0,.141-.7,1.735,1.735,0,0,0-.307-1,1.766,1.766,0,0,0-.791-.648,1.73,1.73,0,0,0-.691-.142A1.768,1.768,0,0,0,20229.383,8200.186Zm10.877,4.607h-.006a1.327,1.327,0,0,1-1.322-1.306v-7.54a1.334,1.334,0,0,1,1.33,1.33v7.516Zm-31.436,0h0a1.326,1.326,0,0,1-1.322-1.3v-7.543a1.33,1.33,0,0,1,1.328,1.33v7.516Zm59.379-6.531a.124.124,0,0,1-.125-.127v-1.09a.127.127,0,0,1,.125-.129h.445a.781.781,0,0,1,.768.783v.436a.123.123,0,0,1-.125.127Zm-1.521,0a.126.126,0,0,1-.129-.127v-.436a.781.781,0,0,1,.768-.783h.453a.125.125,0,0,1,.121.129v1.09a.122.122,0,0,1-.121.127Zm-20.434,0a.124.124,0,0,1-.127-.127v-1.09a.127.127,0,0,1,.127-.129h.445a.78.78,0,0,1,.77.783v.436a.125.125,0,0,1-.123.127Zm-1.521,0a.123.123,0,0,1-.127-.127v-.436a.78.78,0,0,1,.77-.783h.449a.127.127,0,0,1,.125.129v1.09a.124.124,0,0,1-.125.127Zm-63.967,0a.124.124,0,0,1-.127-.127v-.436a.781.781,0,0,1,.771-.783h.447a.125.125,0,0,1,.123.129v1.09a.122.122,0,0,1-.123.127Zm-8.422,0a.124.124,0,0,1-.127-.127v-1.09a.127.127,0,0,1,.127-.129h.447a.782.782,0,0,1,.768.783v.436a.123.123,0,0,1-.125.127Zm-1.523,0a.127.127,0,0,1-.127-.127v-.436a.78.78,0,0,1,.766-.783h.453a.13.13,0,0,1,.127.129v1.09a.127.127,0,0,1-.127.127Zm96.539-1.5a.127.127,0,0,1-.129-.125v-.439a.781.781,0,0,1,.771-.781h.447a.131.131,0,0,1,.129.129v1.092a.129.129,0,0,1-.129.125Z" transform="translate(-20169 -8184.533)" fill="#0061b4"/>
          <path id="Path_3473" data-name="Path 3473" d="M-324.554-6.991a.488.488,0,0,0-.359-.149.486.486,0,0,0-.485.337l-1.249,3.313L-328.031-6.8a.476.476,0,0,0-.45-.338.491.491,0,0,0-.369.15.5.5,0,0,0-.139.357.387.387,0,0,0,.032.174l1.4,3.3a.683.683,0,0,0,.632.4l-.522,1.381a.856.856,0,0,0-.065.266.494.494,0,0,0,.148.359.483.483,0,0,0,.35.147.5.5,0,0,0,.278-.1.52.52,0,0,0,.2-.238l2.049-5.406a.8.8,0,0,0,.083-.284.5.5,0,0,0-.147-.367m-6.964-.149a2.2,2.2,0,0,0-1.612.664,2.23,2.23,0,0,0-.662,1.637v1.846a.494.494,0,0,0,.152.355.489.489,0,0,0,.708,0,.489.489,0,0,0,.152-.355V-4.9a1.3,1.3,0,0,1,.371-.962,1.212,1.212,0,0,1,.891-.368,1.211,1.211,0,0,1,.89.368,1.282,1.282,0,0,1,.371.962v1.906a.5.5,0,0,0,.146.354.475.475,0,0,0,.351.153.5.5,0,0,0,.357-.151.484.484,0,0,0,.158-.356V-4.839a2.239,2.239,0,0,0-.662-1.633,2.195,2.195,0,0,0-1.61-.667M-336.039-3.8a1.522,1.522,0,0,0,.368-1.024,1.454,1.454,0,0,0-.372-1.014,1.2,1.2,0,0,0-.933-.411,1.265,1.265,0,0,0-.973.416,1.434,1.434,0,0,0-.391,1.008,1.44,1.44,0,0,0,.392,1.022,1.258,1.258,0,0,0,.972.421,1.171,1.171,0,0,0,.937-.418m1.172-3.194a.49.49,0,0,1,.147.359v3.639a.49.49,0,0,1-.151.36.5.5,0,0,1-.354.147.5.5,0,0,1-.353-.147.487.487,0,0,1-.143-.26,2.22,2.22,0,0,1-1.314.407,2.161,2.161,0,0,1-1.608-.681,2.3,2.3,0,0,1-.656-1.654,2.265,2.265,0,0,1,.661-1.645,2.178,2.178,0,0,1,1.6-.672,2.2,2.2,0,0,1,1.314.406.489.489,0,0,1,.143-.259.5.5,0,0,1,.712,0m-8.279,1.144a1.44,1.44,0,0,0-.366,1v.1a1.36,1.36,0,0,0,.369.969,1.222,1.222,0,0,0,.935.387,1.27,1.27,0,0,0,.973-.413,1.4,1.4,0,0,0,.391-1,1.44,1.44,0,0,0-.391-1.022,1.262,1.262,0,0,0-.973-.421,1.2,1.2,0,0,0-.938.4m2.615-.61a2.321,2.321,0,0,1,.648,1.654,2.286,2.286,0,0,1-.652,1.641,2.1,2.1,0,0,1-1.56.677,1.956,1.956,0,0,1-1.356-.5V-1.1a.484.484,0,0,1-.153.36.5.5,0,0,1-.353.147.491.491,0,0,1-.358-.148.5.5,0,0,1-.147-.359V-6.633a.492.492,0,0,1,.147-.358.51.51,0,0,1,.717,0,.49.49,0,0,1,.148.354,1.959,1.959,0,0,1,1.356-.5,2.1,2.1,0,0,1,1.565.682m-6.953-.682a2.039,2.039,0,0,0-1.6.771,2.057,2.057,0,0,0-1.586-.771,2.048,2.048,0,0,0-1.513.616,2.18,2.18,0,0,0-.606,1.59v1.94a.493.493,0,0,0,.152.355.489.489,0,0,0,.708,0,.49.49,0,0,0,.151-.355V-5.037a1.214,1.214,0,0,1,.316-.879,1.043,1.043,0,0,1,.782-.323,1.025,1.025,0,0,1,.776.323,1.2,1.2,0,0,1,.313.879v2.043a.492.492,0,0,0,.152.355.485.485,0,0,0,.706,0,.5.5,0,0,0,.146-.353V-5.037a1.2,1.2,0,0,1,.316-.879,1.041,1.041,0,0,1,.781-.323,1.018,1.018,0,0,1,.773.331,1.2,1.2,0,0,1,.317.87v2.043a.484.484,0,0,0,.158.356.5.5,0,0,0,.357.151.46.46,0,0,0,.348-.155.5.5,0,0,0,.142-.352v-1.94a2.2,2.2,0,0,0-.6-1.59,2.008,2.008,0,0,0-1.5-.617m-7.378,3.331a1.429,1.429,0,0,0,.4-1.014,1.394,1.394,0,0,0-.4-1,1.311,1.311,0,0,0-.979-.417,1.31,1.31,0,0,0-.983.418,1.387,1.387,0,0,0-.407,1,1.421,1.421,0,0,0,.4,1.018,1.291,1.291,0,0,0,.986.425,1.293,1.293,0,0,0,.978-.429m.68-2.656a2.231,2.231,0,0,1,.684,1.642,2.259,2.259,0,0,1-.683,1.651,2.268,2.268,0,0,1-1.659.685,2.257,2.257,0,0,1-1.659-.681,2.273,2.273,0,0,1-.674-1.655,2.243,2.243,0,0,1,.675-1.646,2.271,2.271,0,0,1,1.658-.672,2.283,2.283,0,0,1,1.658.675m-5.29,2.64a2.108,2.108,0,0,1-1.265.428,2,2,0,0,1-1.53-.678,2.3,2.3,0,0,1-.624-1.6,2.3,2.3,0,0,1,.624-1.593,1.992,1.992,0,0,1,1.53-.682,2.043,2.043,0,0,1,1.148.354.45.45,0,0,0,.551-.062.433.433,0,0,0,.136-.326.607.607,0,0,0-.359-.5A2.43,2.43,0,0,0-360-8.768a3.52,3.52,0,0,0-.74-.089,3.032,3.032,0,0,0-2.229.942,3.1,3.1,0,0,0-.927,2.243,3.1,3.1,0,0,0,.927,2.242,3.03,3.03,0,0,0,2.229.943,2.961,2.961,0,0,0,1.786-.567.489.489,0,0,0,.238-.412.442.442,0,0,0-.142-.337.473.473,0,0,0-.617-.023M-367.66-7.14a1.909,1.909,0,0,0-1.424.587,1.983,1.983,0,0,0-.567,1.43v2.129a.494.494,0,0,0,.152.355.491.491,0,0,0,.354.152.488.488,0,0,0,.354-.152.489.489,0,0,0,.152-.355V-5.243a.99.99,0,0,1,.262-.707.871.871,0,0,1,.673-.279,1.081,1.081,0,0,1,.606.241.476.476,0,0,0,.637-.042.464.464,0,0,0,.138-.328.479.479,0,0,0-.188-.381,1.726,1.726,0,0,0-1.15-.4m-5.68,1.212a1.48,1.48,0,0,0-.444.693h2.564a1.313,1.313,0,0,0-.4-.679,1.216,1.216,0,0,0-.861-.351,1.231,1.231,0,0,0-.859.336m2.427-.562A2.077,2.077,0,0,1-370.278-5a.628.628,0,0,1-.164.428.537.537,0,0,1-.411.19h-2.928a1.479,1.479,0,0,0,.463.692,1.608,1.608,0,0,0,1.9.007.473.473,0,0,1,.573.068.438.438,0,0,1,.125.315.443.443,0,0,1-.227.408,2.873,2.873,0,0,1-1.5.407,2.293,2.293,0,0,1-1.68-.681,2.261,2.261,0,0,1-.679-1.655,2.23,2.23,0,0,1,.684-1.642,2.25,2.25,0,0,1,1.632-.675,2.119,2.119,0,0,1,1.568.65m-4.477.355a.453.453,0,0,0,.323-.134.44.44,0,0,0,.141-.33.437.437,0,0,0-.136-.326.454.454,0,0,0-.327-.129h-.694V-7.7a.478.478,0,0,0-.153-.352.51.51,0,0,0-.714,0,.474.474,0,0,0-.153.352v.643h-.24a.429.429,0,0,0-.321.141.442.442,0,0,0-.134.314.454.454,0,0,0,.129.327.43.43,0,0,0,.325.137h.24V-3.74a1.137,1.137,0,0,0,.341.822,1.128,1.128,0,0,0,.834.346h.43a.453.453,0,0,0,.327-.13.432.432,0,0,0,.135-.325.453.453,0,0,0-.133-.328h0a.453.453,0,0,0-.329-.135h-.334a.248.248,0,0,1-.173-.074.221.221,0,0,1-.076-.174V-6.135ZM-379.575-3.8a1.52,1.52,0,0,0,.368-1.024,1.454,1.454,0,0,0-.372-1.014,1.2,1.2,0,0,0-.933-.411,1.266,1.266,0,0,0-.974.416,1.435,1.435,0,0,0-.391,1.008,1.441,1.441,0,0,0,.392,1.022,1.259,1.259,0,0,0,.973.421,1.171,1.171,0,0,0,.937-.418m1.172-3.194a.491.491,0,0,1,.147.359v3.639a.49.49,0,0,1-.151.36.5.5,0,0,1-.354.147.5.5,0,0,1-.353-.147.49.49,0,0,1-.143-.26,2.219,2.219,0,0,1-1.314.407,2.162,2.162,0,0,1-1.608-.681,2.3,2.3,0,0,1-.656-1.654,2.265,2.265,0,0,1,.661-1.645,2.178,2.178,0,0,1,1.6-.672,2.2,2.2,0,0,1,1.314.406.492.492,0,0,1,.143-.259.5.5,0,0,1,.712,0m-5.747-1.865a.443.443,0,0,0-.347.153.622.622,0,0,0-.147.366l-.272,4.386-1.358-1.919a.672.672,0,0,0-.551-.307.678.678,0,0,0-.551.3l-1.365,1.927-.272-4.387a.616.616,0,0,0-.144-.363.439.439,0,0,0-.35-.154.467.467,0,0,0-.352.154.527.527,0,0,0-.142.376l.343,5.237a.6.6,0,0,0,.151.365.459.459,0,0,0,.351.151h.3a.553.553,0,0,0,.467-.279l1.562-2.16,1.57,2.171a.574.574,0,0,0,.462.268h.3a.474.474,0,0,0,.36-.15.6.6,0,0,0,.154-.368l.343-5.236v-.006a.516.516,0,0,0-.145-.37.487.487,0,0,0-.367-.154m-9.867-.191a.488.488,0,0,0-.151.354v5.7a.489.489,0,0,0,.151.355.488.488,0,0,0,.354.152.488.488,0,0,0,.355-.152.49.49,0,0,0,.151-.355v-5.7a.489.489,0,0,0-.151-.354.488.488,0,0,0-.709,0M-396.5-3.8a1.522,1.522,0,0,0,.368-1.024,1.454,1.454,0,0,0-.372-1.014,1.2,1.2,0,0,0-.933-.411,1.265,1.265,0,0,0-.973.416,1.435,1.435,0,0,0-.391,1.008,1.439,1.439,0,0,0,.392,1.022,1.258,1.258,0,0,0,.972.421A1.17,1.17,0,0,0-396.5-3.8m1.172-3.194a.491.491,0,0,1,.147.359v3.639a.49.49,0,0,1-.152.36.5.5,0,0,1-.354.147.5.5,0,0,1-.353-.147.487.487,0,0,1-.143-.26,2.22,2.22,0,0,1-1.314.407,2.161,2.161,0,0,1-1.608-.681,2.3,2.3,0,0,1-.656-1.654,2.265,2.265,0,0,1,.662-1.645,2.177,2.177,0,0,1,1.6-.672,2.2,2.2,0,0,1,1.314.406.49.49,0,0,1,.142-.259.5.5,0,0,1,.712,0m-7.418-.148a2.2,2.2,0,0,0-1.611.664,2.23,2.23,0,0,0-.662,1.637v1.846a.494.494,0,0,0,.152.355.489.489,0,0,0,.708,0,.489.489,0,0,0,.152-.355V-4.9a1.3,1.3,0,0,1,.371-.962,1.211,1.211,0,0,1,.891-.368,1.211,1.211,0,0,1,.89.368,1.281,1.281,0,0,1,.371.962v1.906a.5.5,0,0,0,.146.354.475.475,0,0,0,.351.153.5.5,0,0,0,.357-.151.485.485,0,0,0,.158-.356V-4.839a2.239,2.239,0,0,0-.663-1.633,2.194,2.194,0,0,0-1.61-.667m-4.35,3.331a1.429,1.429,0,0,0,.4-1.014,1.393,1.393,0,0,0-.4-1,1.31,1.31,0,0,0-.979-.417,1.31,1.31,0,0,0-.983.418,1.387,1.387,0,0,0-.407,1,1.421,1.421,0,0,0,.4,1.018,1.291,1.291,0,0,0,.986.425,1.294,1.294,0,0,0,.978-.429m.68-2.656a2.231,2.231,0,0,1,.684,1.642,2.259,2.259,0,0,1-.683,1.651,2.268,2.268,0,0,1-1.659.685,2.258,2.258,0,0,1-1.659-.681,2.273,2.273,0,0,1-.674-1.655,2.243,2.243,0,0,1,.675-1.646,2.272,2.272,0,0,1,1.658-.672,2.285,2.285,0,0,1,1.658.675M-412.2-8.67a.614.614,0,0,0-.186.449.614.614,0,0,0,.186.449.615.615,0,0,0,.449.187.614.614,0,0,0,.449-.187.614.614,0,0,0,.186-.449.613.613,0,0,0-.186-.449.636.636,0,0,0-.9,0m.1,1.769a.5.5,0,0,0-.146.354v3.553a.5.5,0,0,0,.147.354.476.476,0,0,0,.35.153.486.486,0,0,0,.36-.154.5.5,0,0,0,.146-.353V-6.547a.5.5,0,0,0-.146-.354.491.491,0,0,0-.711,0m-1.2.766a.452.452,0,0,0,.323-.134.44.44,0,0,0,.141-.33.437.437,0,0,0-.136-.326.454.454,0,0,0-.327-.129H-414V-7.7a.479.479,0,0,0-.153-.352.511.511,0,0,0-.714,0,.474.474,0,0,0-.153.352v.643h-.24a.43.43,0,0,0-.321.141.442.442,0,0,0-.133.314.454.454,0,0,0,.129.327.43.43,0,0,0,.325.137h.24V-3.74a1.137,1.137,0,0,0,.341.822,1.129,1.129,0,0,0,.835.346h.429a.453.453,0,0,0,.327-.13.432.432,0,0,0,.135-.325.453.453,0,0,0-.133-.328h0a.453.453,0,0,0-.329-.135h-.335a.248.248,0,0,1-.173-.074A.22.22,0,0,1-414-3.74V-6.135ZM-417.492-3.8a1.519,1.519,0,0,0,.368-1.024,1.453,1.453,0,0,0-.372-1.014,1.2,1.2,0,0,0-.933-.411,1.265,1.265,0,0,0-.973.416,1.435,1.435,0,0,0-.391,1.008A1.441,1.441,0,0,0-419.4-3.8a1.259,1.259,0,0,0,.973.421,1.169,1.169,0,0,0,.936-.418m1.172-3.194a.491.491,0,0,1,.147.359v3.639a.49.49,0,0,1-.151.36.5.5,0,0,1-.354.147.5.5,0,0,1-.353-.147.49.49,0,0,1-.143-.26,2.219,2.219,0,0,1-1.314.407,2.161,2.161,0,0,1-1.608-.681,2.3,2.3,0,0,1-.656-1.654,2.264,2.264,0,0,1,.661-1.645,2.177,2.177,0,0,1,1.6-.672,2.2,2.2,0,0,1,1.314.406.494.494,0,0,1,.142-.259.5.5,0,0,1,.713,0m-5.464-1.717a.487.487,0,0,1,.147.358v5.263a.5.5,0,0,1-.151.358.488.488,0,0,1-.363.157h-.352a.541.541,0,0,1-.464-.255l-3.062-4.427V-3a.523.523,0,0,1-.135.365.467.467,0,0,1-.353.151.484.484,0,0,1-.359-.153A.507.507,0,0,1-427.023-3V-8.255a.506.506,0,0,1,.15-.358.489.489,0,0,1,.362-.157h.351a.533.533,0,0,1,.462.261l3.067,4.434V-8.35a.5.5,0,0,1,.137-.356.5.5,0,0,1,.711,0" transform="translate(427.071 34.869)" fill="#0061b4"/>
        </g>
      </g>
    </g>
  </g>
</svg>
