<svg width="800" height="600" xmlns="http://www.w3.org/2000/svg">
 <g>
  <title>Layer 1</title>
  <g stroke-width="0" id="svg_1" stroke="null">
   <path fill="#00007f" id="svg_2" d="m343.73252,226.35049a7.522,9.93181 0 0 0 -6.11199,-4.14355l-0.74316,0a7.51965,9.92871 0 0 0 -7.13868,6.80671l-16.16285,64.40098l-16.23799,-64.41416a7.52141,9.93103 0 0 0 -7.13574,-6.79353l-0.48253,0l-0.08982,0.00232c-0.03111,0 -0.06164,-0.00232 -0.09099,-0.00232l-0.58584,0a7.52141,9.93103 0 0 0 -7.13986,6.80671l-16.16226,64.40098l-16.2374,-64.41416a7.52141,9.93103 0 0 0 -7.13574,-6.79353l-0.74433,0c-2.42437,0 -4.70022,1.54317 -6.11316,4.14355a7.52258,9.93259 0 0 0 -1.00966,8.97459l23.55395,91.72548a7.51965,9.92871 0 0 0 7.12342,6.74161l0.31112,0c0.08982,0 0.17787,-0.0062 0.26709,-0.01085c0.08864,0.00465 0.17728,0.01085 0.2665,0.01085l0.2078,0c3.22858,0 6.09673,-2.72129 7.12752,-6.75943l16.34541,-64.07933l16.27086,64.06538a7.52141,9.93103 0 0 0 7.13105,6.77338l0.30936,0c0.08982,0 0.17787,-0.0062 0.26768,-0.01085c0.08805,0.00465 0.17728,0.01085 0.2665,0.01085l0.20839,0c3.2233,0 6.08733,-2.71044 7.12283,-6.74161l23.55395,-91.72548a7.5267,9.93801 0 0 0 -1.01143,-8.97459l0.00001,0l-0.00001,0zm69.54239,78.61818a7.52141,9.93103 0 0 0 -9.98511,-0.29298c-5.00195,5.60689 -11.45323,8.69479 -18.16398,8.69479c-15.30287,0 -27.75227,-15.89679 -27.75227,-35.43721c0,-19.46679 12.4494,-35.30311 27.75227,-35.30311c6.77532,0 13.22073,3.03519 18.15107,8.54675a7.52083,9.93026 0 0 0 10.17824,-0.55728l0.25066,-0.33095a7.51789,9.92638 0 0 0 -0.49309,-14.63806c-7.84897,-8.66844 -17.82527,-13.4429 -28.08745,-13.4429c-23.8316,0 -43.22068,24.99849 -43.22068,55.72634c0,30.8007 19.38908,55.85966 43.22068,55.85966c10.24575,0 20.24788,-4.81089 28.16435,-13.54831a7.51613,9.92406 0 0 0 2.69381,-7.35856a7.51906,9.92794 0 0 0 -2.39913,-7.53605l-0.30936,-0.38211l-0.00001,-0.00002z" stroke="null"/>
   <path fill="#00007f" id="svg_3" d="m400.55503,194l-142.11008,0c-27.81519,0 -50.44495,15.55172 -50.44495,34.66751l0,97.66033c0,19.11833 22.62976,34.67216 50.44495,34.67216l142.11008,0c27.81581,0 50.44495,-15.55383 50.44495,-34.67216l0,-97.66033c0,-19.11579 -22.62914,-34.66751 -50.44495,-34.66751zm41.2171,132.32784c0,15.62148 -18.48953,28.33039 -41.2171,28.33039l-142.11008,0c-22.72696,0 -41.2171,-12.70891 -41.2171,-28.33039l0,-97.66033c0,-15.61894 18.49015,-28.32574 41.2171,-28.32574l142.11008,0c22.72757,0 41.2171,12.7068 41.2171,28.32574l0,97.66033z" stroke="null"/>
  </g>
 </g>

</svg>