<?xml version="1.0" standalone="no"?>
<!DOCTYPE svg PUBLIC "-//W3C//DTD SVG 20010904//EN"
 "http://www.w3.org/TR/2001/REC-SVG-20010904/DTD/svg10.dtd">
<svg version="1.0" xmlns="http://www.w3.org/2000/svg"
 width="32.000000pt" height="32.000000pt" viewBox="0 0 32.000000 32.000000" fill= '#4474a3'
 preserveAspectRatio="xMidYMid meet">
<metadata>
Created by potrace 1.10, written by Peter Selinger 2001-2011
</metadata>
<g transform="translate(0.000000,32.000000) scale(0.100000,-0.100000)"
fill= '#4474a3' stroke="none">
<path d="M125 283 c-13 -13 -16 -28 -13 -65 4 -40 2 -51 -13 -59 -26 -13 -36
-36 -44 -94 -5 -36 -4 -46 4 -35 6 8 11 29 11 47 0 46 37 85 83 88 20 2 39 -1
42 -5 8 -13 -36 -40 -69 -42 -16 -2 -30 -7 -31 -13 -11 -36 -13 -75 -5 -75 6
0 10 16 10 35 0 22 5 35 13 35 8 0 35 11 61 24 26 13 45 19 43 12 -1 -6 -23
-21 -48 -34 -37 -19 -39 -22 -14 -17 17 3 42 15 57 25 24 17 27 18 32 3 9 -22
0 -29 -59 -46 -29 -9 -40 -16 -27 -16 12 -1 38 6 57 13 34 15 35 14 35 -9 0
-13 5 -27 11 -30 7 -5 8 8 3 41 -8 59 -18 80 -44 94 -16 9 -18 18 -13 58 4 37
2 52 -12 65 -21 22 -49 22 -70 0z m65 -18 c0 -10 -10 -15 -30 -15 -20 0 -30 5
-30 15 0 10 10 15 30 15 20 0 30 -5 30 -15z m-2 -52 c-2 -22 -8 -28 -28 -28
-20 0 -26 6 -28 28 -3 24 0 27 28 27 28 0 31 -3 28 -27z"/>
</g>
</svg>
